<svg width="61" height="61" viewBox="0 0 61 61" fill="none" xmlns="http://www.w3.org/2000/svg">
<g clip-path="url(#clip0_998_3253)">
<path d="M57.1481 27.8935L30.4988 43.8856L3.84938 27.8935C3.27135 27.5466 2.57922 27.4437 1.92525 27.6071C1.27127 27.7706 0.709036 28.1872 0.362216 28.7653C0.0153958 29.3433 -0.0875966 30.0354 0.0758961 30.6894C0.239389 31.3434 0.655974 31.9056 1.23401 32.2524L29.1923 49.0274C29.5877 49.2649 30.0401 49.3904 30.5013 49.3904C30.9625 49.3904 31.4149 49.2649 31.8103 49.0274L59.7686 32.2524C60.3466 31.9056 60.7632 31.3434 60.9267 30.6894C61.0902 30.0354 60.9872 29.3433 60.6404 28.7653C60.2936 28.1872 59.7313 27.7706 59.0774 27.6071C58.4234 27.4437 57.7313 27.5466 57.1532 27.8935H57.1481Z" fill="#61987C"/>
<path d="M57.1481 39.5028L30.4988 55.4925L3.84938 39.5028C3.56316 39.3311 3.24593 39.2174 2.91578 39.1683C2.58564 39.1192 2.24905 39.1356 1.92524 39.2165C1.60142 39.2975 1.29673 39.4414 1.02854 39.6401C0.760357 39.8388 0.533937 40.0884 0.362209 40.3746C0.190481 40.6608 0.076808 40.9781 0.0276812 41.3082C-0.0214457 41.6384 -0.00506484 41.975 0.0758885 42.2988C0.239381 42.9527 0.655966 43.515 1.234 43.8618L29.1923 60.6368C29.5876 60.8743 30.0401 60.9998 30.5013 60.9998C30.9625 60.9998 31.4149 60.8743 31.8102 60.6368L59.7686 43.8618C60.3466 43.515 60.7632 42.9527 60.9267 42.2988C61.0902 41.6448 60.9872 40.9527 60.6404 40.3746C60.2936 39.7966 59.7313 39.38 59.0773 39.2165C58.4234 39.053 57.7312 39.156 57.1532 39.5028H57.1481Z" fill="#32654B"/>
<path d="M1.2319 21.2406L26.6079 36.4678C27.7828 37.1746 29.1281 37.548 30.4992 37.548C31.8703 37.548 33.2156 37.1746 34.3905 36.4678L59.7665 21.2406C60.1423 21.0147 60.4532 20.6953 60.6691 20.3137C60.8849 19.932 60.9984 19.5009 60.9984 19.0624C60.9984 18.6239 60.8849 18.1929 60.6691 17.8112C60.4532 17.4295 60.1423 17.1102 59.7665 16.8842L34.3905 1.6571C33.2153 0.951104 31.8702 0.578125 30.4992 0.578125C29.1282 0.578125 27.7831 0.951104 26.6079 1.6571L1.2319 16.8842C0.856113 17.1102 0.545173 17.4295 0.329309 17.8112C0.113445 18.1929 0 18.6239 0 19.0624C0 19.5009 0.113445 19.932 0.329309 20.3137C0.545173 20.6953 0.856113 21.0147 1.2319 21.2406Z" fill="#68D09B"/>
</g>
<defs>
<clipPath id="clip0_998_3253">
<rect width="61" height="61" fill="white"/>
</clipPath>
</defs>
</svg>
